<svg xmlns="http://www.w3.org/2000/svg" viewBox="0 0 24 24" fill="white" stroke="black" stroke-width="1">
  <path d="M3 12h18m-9-9v18M5.25 4.5l13.5 15m-13.5 0l13.5-15M12 3a1.5 1.5 0 100-3 1.5 1.5 0 000 3zM12 24a1.5 1.5 0 100-3 1.5 1.5 0 000 3zM21 12a1.5 1.5 0 100-3 1.5 1.5 0 000 3zM3 12a1.5 1.5 0 100-3 1.5 1.5 0 000 3zM18.364 5.636a1.5 1.5 0 100-3 1.5 1.5 0 000 3zM5.636 18.364a1.5 1.5 0 100-3 1.5 1.5 0 000 3zM18.364 18.364a1.5 1.5 0 100-3 1.5 1.5 0 000 3zM5.636 5.636a1.5 1.5 0 100-3 1.5 1.5 0 000 3z" />
</svg>